<mxfile>
  <diagram id="ofdS2_Cm_0ikkypsyhua" name="Pagina-1">
    <mxGraphModel dx="1523" dy="886" grid="1" gridSize="10" guides="1" tooltips="1" connect="1" arrows="1" fold="1" page="1" pageScale="1" pageWidth="1169" pageHeight="827" math="0" shadow="0" adaptiveColors="auto">
      <root>
        <mxCell id="0" />
        <mxCell id="1" parent="0" />
        <mxCell id="214" value="" style="whiteSpace=wrap;html=1;strokeColor=none;" vertex="1" parent="1">
          <mxGeometry x="20" y="20" width="1140" height="780" as="geometry" />
        </mxCell>
        <mxCell id="29" value="Cache1" style="group;labelPosition=center;verticalLabelPosition=top;align=right;verticalAlign=bottom;fontSize=24;labelBackgroundColor=none;fontFamily=monospace;html=1;" parent="1" vertex="1" connectable="0">
          <mxGeometry x="600" y="160" width="160" height="240" as="geometry" />
        </mxCell>
        <mxCell id="2" value="" style="whiteSpace=wrap;html=1;fontFamily=monospace;labelBackgroundColor=none;" parent="29" vertex="1">
          <mxGeometry width="160" height="240" as="geometry" />
        </mxCell>
        <mxCell id="21" value="" style="edgeStyle=none;orthogonalLoop=1;jettySize=auto;html=1;endArrow=none;endFill=0;labelBackgroundColor=none;fontFamily=monospace;" parent="29" edge="1">
          <mxGeometry width="80" relative="1" as="geometry">
            <mxPoint y="40" as="sourcePoint" />
            <mxPoint x="160" y="40" as="targetPoint" />
            <Array as="points" />
          </mxGeometry>
        </mxCell>
        <mxCell id="22" value="" style="edgeStyle=none;orthogonalLoop=1;jettySize=auto;html=1;endArrow=none;endFill=0;labelBackgroundColor=none;fontFamily=monospace;" parent="29" edge="1">
          <mxGeometry width="80" relative="1" as="geometry">
            <mxPoint y="80" as="sourcePoint" />
            <mxPoint x="160" y="80" as="targetPoint" />
            <Array as="points" />
          </mxGeometry>
        </mxCell>
        <mxCell id="23" value="" style="edgeStyle=none;orthogonalLoop=1;jettySize=auto;html=1;endArrow=none;endFill=0;labelBackgroundColor=none;fontFamily=monospace;" parent="29" edge="1">
          <mxGeometry width="80" relative="1" as="geometry">
            <mxPoint y="120" as="sourcePoint" />
            <mxPoint x="160" y="120" as="targetPoint" />
            <Array as="points" />
          </mxGeometry>
        </mxCell>
        <mxCell id="24" value="" style="edgeStyle=none;orthogonalLoop=1;jettySize=auto;html=1;endArrow=none;endFill=0;labelBackgroundColor=none;fontFamily=monospace;" parent="29" edge="1">
          <mxGeometry width="80" relative="1" as="geometry">
            <mxPoint y="160" as="sourcePoint" />
            <mxPoint x="160" y="160" as="targetPoint" />
            <Array as="points" />
          </mxGeometry>
        </mxCell>
        <mxCell id="25" value="" style="edgeStyle=none;orthogonalLoop=1;jettySize=auto;html=1;endArrow=none;endFill=0;labelBackgroundColor=none;fontFamily=monospace;" parent="29" edge="1">
          <mxGeometry width="80" relative="1" as="geometry">
            <mxPoint y="200" as="sourcePoint" />
            <mxPoint x="160" y="200" as="targetPoint" />
            <Array as="points" />
          </mxGeometry>
        </mxCell>
        <mxCell id="60" value="A" style="edgeStyle=none;orthogonalLoop=1;jettySize=auto;html=1;fontSize=18;labelBackgroundColor=none;fontFamily=monospace;" parent="1" edge="1">
          <mxGeometry y="20" width="80" relative="1" as="geometry">
            <mxPoint x="40" y="80" as="sourcePoint" />
            <mxPoint x="120" y="80" as="targetPoint" />
            <Array as="points" />
            <mxPoint as="offset" />
          </mxGeometry>
        </mxCell>
        <mxCell id="61" value="" style="shape=curlyBracket;whiteSpace=wrap;html=1;rounded=1;labelPosition=left;verticalLabelPosition=middle;align=right;verticalAlign=middle;size=0.5;labelBackgroundColor=none;fontFamily=monospace;" parent="1" vertex="1">
          <mxGeometry x="120" y="30" width="20" height="100" as="geometry" />
        </mxCell>
        <mxCell id="69" value="" style="shape=curlyBracket;whiteSpace=wrap;html=1;rounded=1;labelPosition=left;verticalLabelPosition=middle;align=right;verticalAlign=middle;size=0.5;labelBackgroundColor=none;fontFamily=monospace;rotation=-90;" parent="1" vertex="1">
          <mxGeometry x="550" y="180" width="20" height="40" as="geometry" />
        </mxCell>
        <mxCell id="73" value="n" style="edgeStyle=none;orthogonalLoop=1;jettySize=auto;html=1;endArrow=none;endFill=0;labelBackgroundColor=none;fontFamily=monospace;" parent="1" edge="1">
          <mxGeometry x="-0.5" y="-11" width="80" relative="1" as="geometry">
            <mxPoint x="60" y="85" as="sourcePoint" />
            <mxPoint x="70" y="75" as="targetPoint" />
            <Array as="points" />
            <mxPoint as="offset" />
          </mxGeometry>
        </mxCell>
        <mxCell id="77" value="" style="edgeStyle=none;orthogonalLoop=1;jettySize=auto;html=1;fontFamily=monospace;labelBackgroundColor=none;entryX=0.75;entryY=0;entryDx=0;entryDy=0;rounded=0;curved=0;" parent="1" edge="1" target="79">
          <mxGeometry width="80" relative="1" as="geometry">
            <mxPoint x="319.8" y="400" as="sourcePoint" />
            <mxPoint x="319.8" y="440" as="targetPoint" />
            <Array as="points">
              <mxPoint x="320" y="420" />
              <mxPoint x="290" y="420" />
            </Array>
          </mxGeometry>
        </mxCell>
        <mxCell id="79" value="Confronto" style="whiteSpace=wrap;html=1;fontSize=16;fontFamily=monospace;labelBackgroundColor=none;" parent="1" vertex="1">
          <mxGeometry x="200" y="440" width="120" height="40" as="geometry" />
        </mxCell>
        <mxCell id="80" value="" style="edgeStyle=none;orthogonalLoop=1;jettySize=auto;html=1;entryX=0;entryY=0.75;entryDx=0;entryDy=0;entryPerimeter=0;fontFamily=monospace;rounded=0;curved=0;labelBackgroundColor=none;exitX=0.5;exitY=1;exitDx=0;exitDy=0;" parent="1" target="81" edge="1" source="79">
          <mxGeometry width="80" relative="1" as="geometry">
            <mxPoint x="269.8" y="480" as="sourcePoint" />
            <mxPoint x="270" y="540" as="targetPoint" />
            <Array as="points">
              <mxPoint x="260" y="510" />
              <mxPoint x="280" y="510" />
            </Array>
          </mxGeometry>
        </mxCell>
        <mxCell id="95" style="edgeStyle=none;html=1;exitX=1;exitY=0.5;exitDx=0;exitDy=0;exitPerimeter=0;fontFamily=monospace;jumpStyle=arc;jumpSize=9;labelBackgroundColor=none;fillColor=#0050ef;strokeColor=#001DBC;" parent="1" edge="1">
          <mxGeometry relative="1" as="geometry">
            <mxPoint x="361.13" y="770" as="targetPoint" />
            <mxPoint x="361.13" y="660" as="sourcePoint" />
          </mxGeometry>
        </mxCell>
        <mxCell id="96" value="&lt;font style=&quot;color: rgb(0, 29, 188);&quot;&gt;hit/miss&lt;/font&gt;" style="edgeLabel;html=1;align=center;verticalAlign=middle;resizable=0;points=[];fontFamily=monospace;fontSize=20;labelBackgroundColor=none;" parent="95" vertex="1" connectable="0">
          <mxGeometry x="0.3696" y="1" relative="1" as="geometry">
            <mxPoint x="49" y="-55" as="offset" />
          </mxGeometry>
        </mxCell>
        <mxCell id="81" value="" style="shape=or;whiteSpace=wrap;html=1;rotation=90;fontFamily=monospace;labelBackgroundColor=none;" parent="1" vertex="1">
          <mxGeometry x="275" y="545" width="30" height="40" as="geometry" />
        </mxCell>
        <mxCell id="88" value="Etichette1" style="group;labelPosition=center;verticalLabelPosition=top;align=center;verticalAlign=bottom;fontFamily=monospace;html=1;labelBackgroundColor=none;strokeColor=default;" parent="1" vertex="1" connectable="0">
          <mxGeometry x="280" y="160" width="80" height="240" as="geometry" />
        </mxCell>
        <mxCell id="75" value="" style="whiteSpace=wrap;html=1;fontFamily=monospace;labelBackgroundColor=none;" parent="88" vertex="1">
          <mxGeometry width="80" height="240" as="geometry" />
        </mxCell>
        <mxCell id="83" value="" style="edgeStyle=none;orthogonalLoop=1;jettySize=auto;html=1;endArrow=none;endFill=0;labelBackgroundColor=none;fontFamily=monospace;" parent="88" edge="1">
          <mxGeometry width="80" relative="1" as="geometry">
            <mxPoint y="39.80000000000001" as="sourcePoint" />
            <mxPoint x="80" y="39.80000000000001" as="targetPoint" />
            <Array as="points" />
          </mxGeometry>
        </mxCell>
        <mxCell id="84" value="" style="edgeStyle=none;orthogonalLoop=1;jettySize=auto;html=1;endArrow=none;endFill=0;labelBackgroundColor=none;fontFamily=monospace;" parent="88" edge="1">
          <mxGeometry width="80" relative="1" as="geometry">
            <mxPoint y="80" as="sourcePoint" />
            <mxPoint x="80" y="80" as="targetPoint" />
            <Array as="points" />
          </mxGeometry>
        </mxCell>
        <mxCell id="85" value="" style="edgeStyle=none;orthogonalLoop=1;jettySize=auto;html=1;endArrow=none;endFill=0;labelBackgroundColor=none;fontFamily=monospace;" parent="88" edge="1">
          <mxGeometry width="80" relative="1" as="geometry">
            <mxPoint y="120" as="sourcePoint" />
            <mxPoint x="80" y="120" as="targetPoint" />
            <Array as="points" />
          </mxGeometry>
        </mxCell>
        <mxCell id="86" value="" style="edgeStyle=none;orthogonalLoop=1;jettySize=auto;html=1;endArrow=none;endFill=0;labelBackgroundColor=none;fontFamily=monospace;" parent="88" edge="1">
          <mxGeometry width="80" relative="1" as="geometry">
            <mxPoint y="160.2" as="sourcePoint" />
            <mxPoint x="80" y="160.2" as="targetPoint" />
            <Array as="points" />
          </mxGeometry>
        </mxCell>
        <mxCell id="87" value="" style="edgeStyle=none;orthogonalLoop=1;jettySize=auto;html=1;endArrow=none;endFill=0;labelBackgroundColor=none;fontFamily=monospace;" parent="88" edge="1">
          <mxGeometry width="80" relative="1" as="geometry">
            <mxPoint y="200" as="sourcePoint" />
            <mxPoint x="80" y="200" as="targetPoint" />
            <Array as="points" />
          </mxGeometry>
        </mxCell>
        <mxCell id="91" value="&lt;font style=&quot;&quot;&gt;V&lt;/font&gt;" style="whiteSpace=wrap;html=1;labelPosition=center;verticalLabelPosition=top;align=center;verticalAlign=bottom;fontFamily=monospace;strokeColor=default;labelBackgroundColor=none;fontColor=default;" parent="88" vertex="1">
          <mxGeometry x="70" y="80" width="10" height="40" as="geometry" />
        </mxCell>
        <mxCell id="100" value="" style="edgeStyle=none;orthogonalLoop=1;jettySize=auto;html=1;endArrow=none;endFill=0;dashed=1;fontFamily=monospace;labelBackgroundColor=none;" parent="88" edge="1">
          <mxGeometry width="80" relative="1" as="geometry">
            <mxPoint x="74.82999999999998" y="120" as="sourcePoint" />
            <mxPoint x="74.82999999999998" y="240" as="targetPoint" />
            <Array as="points" />
          </mxGeometry>
        </mxCell>
        <mxCell id="110" value="" style="edgeStyle=none;orthogonalLoop=1;jettySize=auto;html=1;endArrow=none;endFill=0;dashed=1;fontFamily=monospace;labelBackgroundColor=none;" parent="88" edge="1">
          <mxGeometry width="80" relative="1" as="geometry">
            <mxPoint x="39.75999999999999" y="120" as="sourcePoint" />
            <mxPoint x="39.75999999999999" y="240" as="targetPoint" />
            <Array as="points" />
          </mxGeometry>
        </mxCell>
        <mxCell id="112" value="" style="edgeStyle=none;orthogonalLoop=1;jettySize=auto;html=1;endArrow=none;endFill=0;fontFamily=monospace;dashed=1;labelBackgroundColor=none;" parent="88" edge="1">
          <mxGeometry width="80" relative="1" as="geometry">
            <mxPoint x="39.99999999999994" y="120" as="sourcePoint" />
            <mxPoint x="39.99999999999994" y="80" as="targetPoint" />
            <Array as="points" />
          </mxGeometry>
        </mxCell>
        <mxCell id="113" value="" style="edgeStyle=none;orthogonalLoop=1;jettySize=auto;html=1;endArrow=none;endFill=0;fontFamily=monospace;dashed=1;labelBackgroundColor=none;" parent="88" edge="1">
          <mxGeometry width="80" relative="1" as="geometry">
            <mxPoint x="29.999999999999943" y="120" as="sourcePoint" />
            <mxPoint x="29.999999999999943" y="80" as="targetPoint" />
            <Array as="points" />
          </mxGeometry>
        </mxCell>
        <mxCell id="114" value="" style="edgeStyle=none;orthogonalLoop=1;jettySize=auto;html=1;endArrow=none;endFill=0;fontFamily=monospace;dashed=1;labelBackgroundColor=none;" parent="88" edge="1">
          <mxGeometry width="80" relative="1" as="geometry">
            <mxPoint x="19.999999999999943" y="120" as="sourcePoint" />
            <mxPoint x="19.999999999999943" y="80" as="targetPoint" />
            <Array as="points" />
          </mxGeometry>
        </mxCell>
        <mxCell id="115" value="" style="edgeStyle=none;orthogonalLoop=1;jettySize=auto;html=1;endArrow=none;endFill=0;fontFamily=monospace;dashed=1;labelBackgroundColor=none;" parent="88" edge="1">
          <mxGeometry width="80" relative="1" as="geometry">
            <mxPoint x="9.999999999999943" y="120" as="sourcePoint" />
            <mxPoint x="9.999999999999943" y="80" as="targetPoint" />
            <Array as="points" />
          </mxGeometry>
        </mxCell>
        <mxCell id="116" value="" style="edgeStyle=none;orthogonalLoop=1;jettySize=auto;html=1;endArrow=none;endFill=0;fontFamily=monospace;dashed=1;labelBackgroundColor=none;" parent="88" edge="1">
          <mxGeometry width="80" relative="1" as="geometry">
            <mxPoint x="59.71999999999997" y="120" as="sourcePoint" />
            <mxPoint x="59.71999999999997" y="80" as="targetPoint" />
            <Array as="points" />
          </mxGeometry>
        </mxCell>
        <mxCell id="117" value="" style="edgeStyle=none;orthogonalLoop=1;jettySize=auto;html=1;endArrow=none;endFill=0;fontFamily=monospace;dashed=1;labelBackgroundColor=none;" parent="88" edge="1">
          <mxGeometry width="80" relative="1" as="geometry">
            <mxPoint x="49.71999999999997" y="120" as="sourcePoint" />
            <mxPoint x="49.71999999999997" y="80" as="targetPoint" />
            <Array as="points" />
          </mxGeometry>
        </mxCell>
        <mxCell id="94" value="" style="edgeStyle=none;orthogonalLoop=1;jettySize=auto;html=1;entryX=0;entryY=0.25;entryDx=0;entryDy=0;entryPerimeter=0;rounded=0;curved=0;fontFamily=monospace;labelBackgroundColor=none;" parent="1" target="81" edge="1">
          <mxGeometry width="80" relative="1" as="geometry">
            <mxPoint x="355" y="400" as="sourcePoint" />
            <mxPoint x="355" y="530" as="targetPoint" />
            <Array as="points">
              <mxPoint x="355" y="510" />
              <mxPoint x="300" y="510" />
            </Array>
          </mxGeometry>
        </mxCell>
        <mxCell id="103" value="n-k-3" style="edgeStyle=none;orthogonalLoop=1;jettySize=auto;html=1;endArrow=none;endFill=0;labelBackgroundColor=none;fontFamily=monospace;" parent="1" edge="1">
          <mxGeometry x="1" y="18" width="80" relative="1" as="geometry">
            <mxPoint x="210" y="55" as="sourcePoint" />
            <mxPoint x="220" y="45" as="targetPoint" />
            <Array as="points" />
            <mxPoint x="23" y="-2" as="offset" />
          </mxGeometry>
        </mxCell>
        <mxCell id="104" value="k" style="edgeStyle=none;orthogonalLoop=1;jettySize=auto;html=1;endArrow=none;endFill=0;labelBackgroundColor=none;fontFamily=monospace;" parent="1" edge="1">
          <mxGeometry x="-1" y="-7" width="80" relative="1" as="geometry">
            <mxPoint x="210" y="85" as="sourcePoint" />
            <mxPoint x="220" y="75" as="targetPoint" />
            <Array as="points" />
            <mxPoint as="offset" />
          </mxGeometry>
        </mxCell>
        <mxCell id="105" value="n-k-3" style="edgeStyle=none;orthogonalLoop=1;jettySize=auto;html=1;endArrow=none;endFill=0;labelBackgroundColor=none;fontFamily=monospace;" parent="1" edge="1">
          <mxGeometry x="-1" y="25" width="80" relative="1" as="geometry">
            <mxPoint x="315" y="414" as="sourcePoint" />
            <mxPoint x="325" y="404" as="targetPoint" />
            <Array as="points" />
            <mxPoint x="-7" y="14" as="offset" />
          </mxGeometry>
        </mxCell>
        <mxCell id="135" value="Cache2" style="group;labelPosition=center;verticalLabelPosition=top;align=right;verticalAlign=bottom;fontSize=24;labelBackgroundColor=none;fontFamily=monospace;html=1;" vertex="1" connectable="0" parent="1">
          <mxGeometry x="840" y="160" width="160" height="240" as="geometry" />
        </mxCell>
        <mxCell id="136" value="" style="whiteSpace=wrap;html=1;fontFamily=monospace;labelBackgroundColor=none;" vertex="1" parent="135">
          <mxGeometry width="160" height="240" as="geometry" />
        </mxCell>
        <mxCell id="137" value="" style="edgeStyle=none;orthogonalLoop=1;jettySize=auto;html=1;endArrow=none;endFill=0;labelBackgroundColor=none;fontFamily=monospace;" edge="1" parent="135">
          <mxGeometry width="80" relative="1" as="geometry">
            <mxPoint y="40" as="sourcePoint" />
            <mxPoint x="160" y="40" as="targetPoint" />
            <Array as="points" />
          </mxGeometry>
        </mxCell>
        <mxCell id="138" value="" style="edgeStyle=none;orthogonalLoop=1;jettySize=auto;html=1;endArrow=none;endFill=0;labelBackgroundColor=none;fontFamily=monospace;" edge="1" parent="135">
          <mxGeometry width="80" relative="1" as="geometry">
            <mxPoint y="80" as="sourcePoint" />
            <mxPoint x="160" y="80" as="targetPoint" />
            <Array as="points" />
          </mxGeometry>
        </mxCell>
        <mxCell id="139" value="" style="edgeStyle=none;orthogonalLoop=1;jettySize=auto;html=1;endArrow=none;endFill=0;labelBackgroundColor=none;fontFamily=monospace;" edge="1" parent="135">
          <mxGeometry width="80" relative="1" as="geometry">
            <mxPoint y="120" as="sourcePoint" />
            <mxPoint x="160" y="120" as="targetPoint" />
            <Array as="points" />
          </mxGeometry>
        </mxCell>
        <mxCell id="140" value="" style="edgeStyle=none;orthogonalLoop=1;jettySize=auto;html=1;endArrow=none;endFill=0;labelBackgroundColor=none;fontFamily=monospace;" edge="1" parent="135">
          <mxGeometry width="80" relative="1" as="geometry">
            <mxPoint y="160" as="sourcePoint" />
            <mxPoint x="160" y="160" as="targetPoint" />
            <Array as="points" />
          </mxGeometry>
        </mxCell>
        <mxCell id="141" value="" style="edgeStyle=none;orthogonalLoop=1;jettySize=auto;html=1;endArrow=none;endFill=0;labelBackgroundColor=none;fontFamily=monospace;" edge="1" parent="135">
          <mxGeometry width="80" relative="1" as="geometry">
            <mxPoint y="200" as="sourcePoint" />
            <mxPoint x="160" y="200" as="targetPoint" />
            <Array as="points" />
          </mxGeometry>
        </mxCell>
        <mxCell id="142" value="R" style="group;labelPosition=center;verticalLabelPosition=top;align=center;verticalAlign=bottom;fontSize=24;labelBackgroundColor=none;fontFamily=monospace;html=1;" vertex="1" connectable="0" parent="1">
          <mxGeometry x="1080" y="160" width="40" height="240" as="geometry" />
        </mxCell>
        <mxCell id="143" value="" style="whiteSpace=wrap;html=1;fontFamily=monospace;labelBackgroundColor=none;" vertex="1" parent="142">
          <mxGeometry width="40" height="240" as="geometry" />
        </mxCell>
        <mxCell id="144" value="" style="edgeStyle=none;orthogonalLoop=1;jettySize=auto;html=1;endArrow=none;endFill=0;labelBackgroundColor=none;fontFamily=monospace;" edge="1" parent="142">
          <mxGeometry width="80" relative="1" as="geometry">
            <mxPoint y="40" as="sourcePoint" />
            <mxPoint x="40" y="40" as="targetPoint" />
            <Array as="points" />
          </mxGeometry>
        </mxCell>
        <mxCell id="145" value="" style="edgeStyle=none;orthogonalLoop=1;jettySize=auto;html=1;endArrow=none;endFill=0;labelBackgroundColor=none;fontFamily=monospace;" edge="1" parent="142">
          <mxGeometry width="80" relative="1" as="geometry">
            <mxPoint y="80" as="sourcePoint" />
            <mxPoint x="40" y="80" as="targetPoint" />
            <Array as="points" />
          </mxGeometry>
        </mxCell>
        <mxCell id="146" value="" style="edgeStyle=none;orthogonalLoop=1;jettySize=auto;html=1;endArrow=none;endFill=0;labelBackgroundColor=none;fontFamily=monospace;" edge="1" parent="142">
          <mxGeometry width="80" relative="1" as="geometry">
            <mxPoint y="120" as="sourcePoint" />
            <mxPoint x="40" y="120" as="targetPoint" />
            <Array as="points" />
          </mxGeometry>
        </mxCell>
        <mxCell id="147" value="" style="edgeStyle=none;orthogonalLoop=1;jettySize=auto;html=1;endArrow=none;endFill=0;labelBackgroundColor=none;fontFamily=monospace;" edge="1" parent="142">
          <mxGeometry width="80" relative="1" as="geometry">
            <mxPoint y="160" as="sourcePoint" />
            <mxPoint x="40" y="160" as="targetPoint" />
            <Array as="points" />
          </mxGeometry>
        </mxCell>
        <mxCell id="148" value="" style="edgeStyle=none;orthogonalLoop=1;jettySize=auto;html=1;endArrow=none;endFill=0;labelBackgroundColor=none;fontFamily=monospace;" edge="1" parent="142">
          <mxGeometry width="80" relative="1" as="geometry">
            <mxPoint y="200" as="sourcePoint" />
            <mxPoint x="40" y="200" as="targetPoint" />
            <Array as="points" />
          </mxGeometry>
        </mxCell>
        <mxCell id="155" style="edgeStyle=none;html=1;" edge="1" parent="1" source="150">
          <mxGeometry relative="1" as="geometry">
            <mxPoint x="800" y="650" as="targetPoint" />
          </mxGeometry>
        </mxCell>
        <mxCell id="150" value="" style="whiteSpace=wrap;html=1;" vertex="1" parent="1">
          <mxGeometry x="700" y="520" width="200" height="80" as="geometry" />
        </mxCell>
        <mxCell id="151" style="edgeStyle=none;html=1;exitX=0;exitY=0;exitDx=0;exitDy=0;entryX=0.5;entryY=1;entryDx=0;entryDy=0;endArrow=none;endFill=0;" edge="1" parent="1" source="150" target="150">
          <mxGeometry relative="1" as="geometry" />
        </mxCell>
        <mxCell id="152" style="edgeStyle=none;html=1;exitX=1;exitY=0;exitDx=0;exitDy=0;entryX=0.5;entryY=1;entryDx=0;entryDy=0;endArrow=none;endFill=0;" edge="1" parent="1" source="150" target="150">
          <mxGeometry relative="1" as="geometry" />
        </mxCell>
        <mxCell id="153" style="edgeStyle=none;html=1;exitX=0.5;exitY=1;exitDx=0;exitDy=0;entryX=0.25;entryY=0;entryDx=0;entryDy=0;rounded=0;curved=0;" edge="1" parent="1" source="2" target="150">
          <mxGeometry relative="1" as="geometry">
            <Array as="points">
              <mxPoint x="680" y="480" />
              <mxPoint x="750" y="480" />
            </Array>
          </mxGeometry>
        </mxCell>
        <mxCell id="154" style="edgeStyle=none;html=1;exitX=0.5;exitY=1;exitDx=0;exitDy=0;entryX=0.75;entryY=0;entryDx=0;entryDy=0;rounded=0;curved=0;" edge="1" parent="1" source="136" target="150">
          <mxGeometry relative="1" as="geometry">
            <Array as="points">
              <mxPoint x="920" y="480" />
              <mxPoint x="850" y="480" />
            </Array>
          </mxGeometry>
        </mxCell>
        <mxCell id="62" value="offset" style="edgeStyle=none;orthogonalLoop=1;jettySize=auto;html=1;labelBackgroundColor=none;fontFamily=monospace;" parent="1" edge="1">
          <mxGeometry x="-0.92" y="10" width="80" relative="1" as="geometry">
            <mxPoint x="130" y="110" as="sourcePoint" />
            <mxPoint x="1130" y="110" as="targetPoint" />
            <Array as="points" />
            <mxPoint as="offset" />
          </mxGeometry>
        </mxCell>
        <mxCell id="71" value="3" style="edgeStyle=none;orthogonalLoop=1;jettySize=auto;html=1;endArrow=none;endFill=0;labelBackgroundColor=none;fontFamily=monospace;" parent="1" edge="1">
          <mxGeometry x="-0.5" y="-11" width="80" relative="1" as="geometry">
            <mxPoint x="210" y="115" as="sourcePoint" />
            <mxPoint x="220" y="105" as="targetPoint" />
            <Array as="points" />
            <mxPoint as="offset" />
          </mxGeometry>
        </mxCell>
        <mxCell id="157" value="indice" style="edgeStyle=none;orthogonalLoop=1;jettySize=auto;html=1;labelBackgroundColor=none;fontFamily=monospace;" edge="1" parent="1">
          <mxGeometry x="-0.88" y="10" width="80" relative="1" as="geometry">
            <mxPoint x="110" y="79.83" as="sourcePoint" />
            <mxPoint x="1110" y="79.83" as="targetPoint" />
            <Array as="points" />
            <mxPoint as="offset" />
          </mxGeometry>
        </mxCell>
        <mxCell id="158" value="etichetta" style="edgeStyle=none;orthogonalLoop=1;jettySize=auto;html=1;labelBackgroundColor=none;fontFamily=monospace;endArrow=none;endFill=0;" edge="1" parent="1">
          <mxGeometry x="-0.6667" y="10" width="80" relative="1" as="geometry">
            <mxPoint x="130" y="50" as="sourcePoint" />
            <mxPoint x="370" y="50" as="targetPoint" />
            <Array as="points" />
            <mxPoint as="offset" />
          </mxGeometry>
        </mxCell>
        <mxCell id="160" value="" style="shape=curlyBracket;whiteSpace=wrap;html=1;rounded=1;labelPosition=left;verticalLabelPosition=middle;align=right;verticalAlign=middle;size=0.5;labelBackgroundColor=none;fontFamily=monospace;rotation=-90;" vertex="1" parent="1">
          <mxGeometry x="790" y="180" width="20" height="40" as="geometry" />
        </mxCell>
        <mxCell id="76" value="" style="edgeStyle=none;orthogonalLoop=1;jettySize=auto;html=1;rounded=0;curved=0;jumpStyle=arc;jumpSize=10;fontFamily=monospace;labelBackgroundColor=none;entryX=0.25;entryY=0;entryDx=0;entryDy=0;startArrow=oval;startFill=1;" parent="1" edge="1" target="79">
          <mxGeometry width="80" relative="1" as="geometry">
            <mxPoint x="230" y="50" as="sourcePoint" />
            <mxPoint x="240" y="440" as="targetPoint" />
            <Array as="points" />
          </mxGeometry>
        </mxCell>
        <mxCell id="164" value="Etichette2" style="group;labelPosition=center;verticalLabelPosition=top;align=center;verticalAlign=bottom;fontFamily=monospace;html=1;labelBackgroundColor=none;fontColor=default;" vertex="1" connectable="0" parent="1">
          <mxGeometry x="400" y="160" width="80" height="240" as="geometry" />
        </mxCell>
        <mxCell id="165" value="" style="whiteSpace=wrap;html=1;fontFamily=monospace;labelBackgroundColor=none;" vertex="1" parent="164">
          <mxGeometry width="80" height="240" as="geometry" />
        </mxCell>
        <mxCell id="166" value="" style="edgeStyle=none;orthogonalLoop=1;jettySize=auto;html=1;endArrow=none;endFill=0;labelBackgroundColor=none;fontFamily=monospace;" edge="1" parent="164">
          <mxGeometry width="80" relative="1" as="geometry">
            <mxPoint y="39.80000000000001" as="sourcePoint" />
            <mxPoint x="80" y="39.80000000000001" as="targetPoint" />
            <Array as="points" />
          </mxGeometry>
        </mxCell>
        <mxCell id="167" value="" style="edgeStyle=none;orthogonalLoop=1;jettySize=auto;html=1;endArrow=none;endFill=0;labelBackgroundColor=none;fontFamily=monospace;" edge="1" parent="164">
          <mxGeometry width="80" relative="1" as="geometry">
            <mxPoint y="80" as="sourcePoint" />
            <mxPoint x="80" y="80" as="targetPoint" />
            <Array as="points" />
          </mxGeometry>
        </mxCell>
        <mxCell id="168" value="" style="edgeStyle=none;orthogonalLoop=1;jettySize=auto;html=1;endArrow=none;endFill=0;labelBackgroundColor=none;fontFamily=monospace;" edge="1" parent="164">
          <mxGeometry width="80" relative="1" as="geometry">
            <mxPoint y="120" as="sourcePoint" />
            <mxPoint x="80" y="120" as="targetPoint" />
            <Array as="points" />
          </mxGeometry>
        </mxCell>
        <mxCell id="169" value="" style="edgeStyle=none;orthogonalLoop=1;jettySize=auto;html=1;endArrow=none;endFill=0;labelBackgroundColor=none;fontFamily=monospace;" edge="1" parent="164">
          <mxGeometry width="80" relative="1" as="geometry">
            <mxPoint y="160.2" as="sourcePoint" />
            <mxPoint x="80" y="160.2" as="targetPoint" />
            <Array as="points" />
          </mxGeometry>
        </mxCell>
        <mxCell id="170" value="" style="edgeStyle=none;orthogonalLoop=1;jettySize=auto;html=1;endArrow=none;endFill=0;labelBackgroundColor=none;fontFamily=monospace;" edge="1" parent="164">
          <mxGeometry width="80" relative="1" as="geometry">
            <mxPoint y="200" as="sourcePoint" />
            <mxPoint x="80" y="200" as="targetPoint" />
            <Array as="points" />
          </mxGeometry>
        </mxCell>
        <mxCell id="171" value="&lt;font style=&quot;&quot;&gt;V&lt;/font&gt;" style="whiteSpace=wrap;html=1;labelPosition=center;verticalLabelPosition=top;align=center;verticalAlign=bottom;fontFamily=monospace;strokeColor=default;labelBackgroundColor=none;fontColor=default;" vertex="1" parent="164">
          <mxGeometry x="70" y="80" width="10" height="40" as="geometry" />
        </mxCell>
        <mxCell id="172" value="" style="edgeStyle=none;orthogonalLoop=1;jettySize=auto;html=1;endArrow=none;endFill=0;dashed=1;fontFamily=monospace;labelBackgroundColor=none;" edge="1" parent="164">
          <mxGeometry width="80" relative="1" as="geometry">
            <mxPoint x="74.82999999999998" y="120" as="sourcePoint" />
            <mxPoint x="74.82999999999998" y="240" as="targetPoint" />
            <Array as="points" />
          </mxGeometry>
        </mxCell>
        <mxCell id="173" value="" style="edgeStyle=none;orthogonalLoop=1;jettySize=auto;html=1;endArrow=none;endFill=0;dashed=1;fontFamily=monospace;labelBackgroundColor=none;" edge="1" parent="164">
          <mxGeometry width="80" relative="1" as="geometry">
            <mxPoint x="39.75999999999999" y="120" as="sourcePoint" />
            <mxPoint x="39.75999999999999" y="240" as="targetPoint" />
            <Array as="points" />
          </mxGeometry>
        </mxCell>
        <mxCell id="174" value="" style="edgeStyle=none;orthogonalLoop=1;jettySize=auto;html=1;endArrow=none;endFill=0;fontFamily=monospace;dashed=1;labelBackgroundColor=none;" edge="1" parent="164">
          <mxGeometry width="80" relative="1" as="geometry">
            <mxPoint x="39.99999999999994" y="120" as="sourcePoint" />
            <mxPoint x="39.99999999999994" y="80" as="targetPoint" />
            <Array as="points" />
          </mxGeometry>
        </mxCell>
        <mxCell id="175" value="" style="edgeStyle=none;orthogonalLoop=1;jettySize=auto;html=1;endArrow=none;endFill=0;fontFamily=monospace;dashed=1;labelBackgroundColor=none;" edge="1" parent="164">
          <mxGeometry width="80" relative="1" as="geometry">
            <mxPoint x="29.999999999999943" y="120" as="sourcePoint" />
            <mxPoint x="29.999999999999943" y="80" as="targetPoint" />
            <Array as="points" />
          </mxGeometry>
        </mxCell>
        <mxCell id="176" value="" style="edgeStyle=none;orthogonalLoop=1;jettySize=auto;html=1;endArrow=none;endFill=0;fontFamily=monospace;dashed=1;labelBackgroundColor=none;" edge="1" parent="164">
          <mxGeometry width="80" relative="1" as="geometry">
            <mxPoint x="19.999999999999943" y="120" as="sourcePoint" />
            <mxPoint x="19.999999999999943" y="80" as="targetPoint" />
            <Array as="points" />
          </mxGeometry>
        </mxCell>
        <mxCell id="177" value="" style="edgeStyle=none;orthogonalLoop=1;jettySize=auto;html=1;endArrow=none;endFill=0;fontFamily=monospace;dashed=1;labelBackgroundColor=none;" edge="1" parent="164">
          <mxGeometry width="80" relative="1" as="geometry">
            <mxPoint x="9.999999999999943" y="120" as="sourcePoint" />
            <mxPoint x="9.999999999999943" y="80" as="targetPoint" />
            <Array as="points" />
          </mxGeometry>
        </mxCell>
        <mxCell id="178" value="" style="edgeStyle=none;orthogonalLoop=1;jettySize=auto;html=1;endArrow=none;endFill=0;fontFamily=monospace;dashed=1;labelBackgroundColor=none;" edge="1" parent="164">
          <mxGeometry width="80" relative="1" as="geometry">
            <mxPoint x="59.71999999999997" y="120" as="sourcePoint" />
            <mxPoint x="59.71999999999997" y="80" as="targetPoint" />
            <Array as="points" />
          </mxGeometry>
        </mxCell>
        <mxCell id="179" value="" style="edgeStyle=none;orthogonalLoop=1;jettySize=auto;html=1;endArrow=none;endFill=0;fontFamily=monospace;dashed=1;labelBackgroundColor=none;" edge="1" parent="164">
          <mxGeometry width="80" relative="1" as="geometry">
            <mxPoint x="49.71999999999997" y="120" as="sourcePoint" />
            <mxPoint x="49.71999999999997" y="80" as="targetPoint" />
            <Array as="points" />
          </mxGeometry>
        </mxCell>
        <mxCell id="74" value="" style="edgeStyle=none;orthogonalLoop=1;jettySize=auto;html=1;rounded=0;curved=0;fontFamily=monospace;labelBackgroundColor=none;jumpStyle=arc;startArrow=oval;startFill=1;" parent="1" edge="1">
          <mxGeometry width="80" relative="1" as="geometry">
            <mxPoint x="260" y="80" as="sourcePoint" />
            <mxPoint x="280" y="260" as="targetPoint" />
            <Array as="points">
              <mxPoint x="260" y="260" />
            </Array>
          </mxGeometry>
        </mxCell>
        <mxCell id="180" value="" style="edgeStyle=none;orthogonalLoop=1;jettySize=auto;html=1;rounded=0;curved=0;fontFamily=monospace;labelBackgroundColor=none;jumpStyle=arc;startArrow=oval;startFill=1;" edge="1" parent="1">
          <mxGeometry width="80" relative="1" as="geometry">
            <mxPoint x="380" y="80" as="sourcePoint" />
            <mxPoint x="400" y="260" as="targetPoint" />
            <Array as="points">
              <mxPoint x="380" y="260" />
            </Array>
          </mxGeometry>
        </mxCell>
        <mxCell id="182" value="" style="edgeStyle=none;orthogonalLoop=1;jettySize=auto;html=1;fontFamily=monospace;labelBackgroundColor=none;entryX=0.75;entryY=0;entryDx=0;entryDy=0;rounded=0;curved=0;" edge="1" parent="1" target="183">
          <mxGeometry width="80" relative="1" as="geometry">
            <mxPoint x="439.8" y="400" as="sourcePoint" />
            <mxPoint x="439.8" y="440" as="targetPoint" />
            <Array as="points">
              <mxPoint x="440" y="420" />
              <mxPoint x="450" y="420" />
            </Array>
          </mxGeometry>
        </mxCell>
        <mxCell id="183" value="Confronto" style="whiteSpace=wrap;html=1;fontSize=16;fontFamily=monospace;labelBackgroundColor=none;" vertex="1" parent="1">
          <mxGeometry x="360" y="440" width="120" height="40" as="geometry" />
        </mxCell>
        <mxCell id="184" value="" style="edgeStyle=none;orthogonalLoop=1;jettySize=auto;html=1;entryX=0;entryY=0.75;entryDx=0;entryDy=0;entryPerimeter=0;fontFamily=monospace;rounded=0;curved=0;labelBackgroundColor=none;exitX=0.5;exitY=1;exitDx=0;exitDy=0;" edge="1" parent="1" source="183" target="185">
          <mxGeometry width="80" relative="1" as="geometry">
            <mxPoint x="389.8" y="480" as="sourcePoint" />
            <mxPoint x="390" y="540" as="targetPoint" />
            <Array as="points">
              <mxPoint x="420" y="510" />
              <mxPoint x="455" y="510" />
            </Array>
          </mxGeometry>
        </mxCell>
        <mxCell id="185" value="" style="shape=or;whiteSpace=wrap;html=1;rotation=90;fontFamily=monospace;labelBackgroundColor=none;" vertex="1" parent="1">
          <mxGeometry x="450" y="545" width="30" height="40" as="geometry" />
        </mxCell>
        <mxCell id="186" value="" style="edgeStyle=none;orthogonalLoop=1;jettySize=auto;html=1;entryX=0;entryY=0.25;entryDx=0;entryDy=0;entryPerimeter=0;rounded=0;curved=0;fontFamily=monospace;labelBackgroundColor=none;" edge="1" parent="1" target="185">
          <mxGeometry width="80" relative="1" as="geometry">
            <mxPoint x="475" y="400" as="sourcePoint" />
            <mxPoint x="475" y="530" as="targetPoint" />
            <Array as="points">
              <mxPoint x="475" y="420" />
              <mxPoint x="520" y="420" />
              <mxPoint x="520" y="510" />
              <mxPoint x="475" y="510" />
            </Array>
          </mxGeometry>
        </mxCell>
        <mxCell id="187" value="n-k-3" style="edgeStyle=none;orthogonalLoop=1;jettySize=auto;html=1;endArrow=none;endFill=0;labelBackgroundColor=none;fontFamily=monospace;" edge="1" parent="1">
          <mxGeometry x="-1" y="25" width="80" relative="1" as="geometry">
            <mxPoint x="435" y="414" as="sourcePoint" />
            <mxPoint x="445" y="404" as="targetPoint" />
            <Array as="points" />
            <mxPoint x="-7" y="14" as="offset" />
          </mxGeometry>
        </mxCell>
        <mxCell id="189" value="" style="edgeStyle=none;orthogonalLoop=1;jettySize=auto;html=1;rounded=0;curved=0;jumpStyle=arc;jumpSize=10;fontFamily=monospace;labelBackgroundColor=none;entryX=0.25;entryY=0;entryDx=0;entryDy=0;" edge="1" parent="1" target="183">
          <mxGeometry width="80" relative="1" as="geometry">
            <mxPoint x="370" y="50" as="sourcePoint" />
            <mxPoint x="360" y="440" as="targetPoint" />
            <Array as="points">
              <mxPoint x="370" y="420" />
              <mxPoint x="390" y="420" />
            </Array>
          </mxGeometry>
        </mxCell>
        <mxCell id="190" value="" style="edgeStyle=none;orthogonalLoop=1;jettySize=auto;html=1;endArrow=none;endFill=0;labelBackgroundColor=none;fontFamily=monospace;" edge="1" parent="1">
          <mxGeometry x="-1" y="25" width="80" relative="1" as="geometry">
            <mxPoint x="375" y="425" as="sourcePoint" />
            <mxPoint x="385" y="415" as="targetPoint" />
            <Array as="points" />
            <mxPoint x="-7" y="14" as="offset" />
          </mxGeometry>
        </mxCell>
        <mxCell id="193" value="" style="shape=xor;whiteSpace=wrap;html=1;rotation=90;" vertex="1" parent="1">
          <mxGeometry x="346.25" y="623.75" width="30" height="42.5" as="geometry" />
        </mxCell>
        <mxCell id="195" value="OR" style="text;html=1;align=center;verticalAlign=middle;resizable=0;points=[];autosize=1;strokeColor=none;fillColor=none;" vertex="1" parent="1">
          <mxGeometry x="341.25" y="630" width="40" height="30" as="geometry" />
        </mxCell>
        <mxCell id="198" style="edgeStyle=none;html=1;exitX=1;exitY=0.5;exitDx=0;exitDy=0;exitPerimeter=0;entryX=0.175;entryY=0.75;entryDx=0;entryDy=0;entryPerimeter=0;rounded=0;curved=0;" edge="1" parent="1" source="81" target="193">
          <mxGeometry relative="1" as="geometry">
            <Array as="points">
              <mxPoint x="290" y="620" />
              <mxPoint x="350" y="620" />
            </Array>
          </mxGeometry>
        </mxCell>
        <mxCell id="199" style="edgeStyle=none;html=1;exitX=1;exitY=0.5;exitDx=0;exitDy=0;exitPerimeter=0;entryX=0.175;entryY=0.25;entryDx=0;entryDy=0;entryPerimeter=0;rounded=0;curved=0;" edge="1" parent="1" source="185" target="193">
          <mxGeometry relative="1" as="geometry">
            <Array as="points">
              <mxPoint x="465" y="600" />
              <mxPoint x="372" y="600" />
            </Array>
          </mxGeometry>
        </mxCell>
        <mxCell id="200" value="" style="edgeStyle=none;orthogonalLoop=1;jettySize=auto;html=1;jumpStyle=arc;jumpSize=8;entryX=0;entryY=0.75;entryDx=0;entryDy=0;rounded=0;curved=0;startArrow=oval;startFill=1;" edge="1" parent="1" target="150">
          <mxGeometry width="80" relative="1" as="geometry">
            <mxPoint x="350" y="620" as="sourcePoint" />
            <mxPoint x="680.7751748728198" y="620" as="targetPoint" />
            <Array as="points">
              <mxPoint x="620" y="620" />
              <mxPoint x="620" y="580" />
            </Array>
          </mxGeometry>
        </mxCell>
        <mxCell id="201" value="" style="edgeStyle=none;orthogonalLoop=1;jettySize=auto;html=1;entryX=0;entryY=0.25;entryDx=0;entryDy=0;rounded=0;curved=0;startArrow=oval;startFill=1;" edge="1" parent="1" target="150">
          <mxGeometry width="80" relative="1" as="geometry">
            <mxPoint x="465" y="600" as="sourcePoint" />
            <mxPoint x="680.3875590479652" y="600" as="targetPoint" />
            <Array as="points">
              <mxPoint x="590" y="600" />
              <mxPoint x="590" y="540" />
            </Array>
          </mxGeometry>
        </mxCell>
        <mxCell id="203" value="&lt;span style=&quot;font-family: &amp;quot;monospace&amp;quot;; font-style: normal; font-variant-ligatures: normal; font-variant-caps: normal; font-weight: 400; letter-spacing: normal; orphans: 2; text-indent: 0px; text-transform: none; widows: 2; word-spacing: 0px; -webkit-text-stroke-width: 0px; white-space: nowrap; text-decoration-thickness: initial; text-decoration-style: initial; text-decoration-color: initial; float: none; display: inline !important;&quot;&gt;1bit&lt;/span&gt;" style="text;whiteSpace=wrap;html=1;labelBackgroundColor=none;fontColor=default;verticalAlign=middle;align=center;fontSize=24;" vertex="1" parent="1">
          <mxGeometry x="1075" y="400" width="50" height="50" as="geometry" />
        </mxCell>
        <mxCell id="204" value="" style="edgeStyle=none;orthogonalLoop=1;jettySize=auto;html=1;rounded=0;curved=0;" edge="1" parent="1">
          <mxGeometry width="80" relative="1" as="geometry">
            <mxPoint x="1050" y="110" as="sourcePoint" />
            <mxPoint x="1080" y="240" as="targetPoint" />
            <Array as="points">
              <mxPoint x="1050" y="240" />
            </Array>
          </mxGeometry>
        </mxCell>
        <mxCell id="205" value="" style="orthogonalLoop=1;jettySize=auto;html=1;elbow=vertical;rounded=0;exitX=0.1;exitY=0.5;exitDx=0;exitDy=0;exitPerimeter=0;" edge="1" parent="1" source="160">
          <mxGeometry width="80" relative="1" as="geometry">
            <mxPoint x="760" y="240" as="sourcePoint" />
            <mxPoint x="840" y="240" as="targetPoint" />
            <Array as="points">
              <mxPoint x="800" y="240" />
            </Array>
          </mxGeometry>
        </mxCell>
        <mxCell id="206" value="" style="orthogonalLoop=1;jettySize=auto;html=1;elbow=vertical;rounded=0;exitX=0.1;exitY=0.5;exitDx=0;exitDy=0;exitPerimeter=0;" edge="1" parent="1" source="69">
          <mxGeometry width="80" relative="1" as="geometry">
            <mxPoint x="570" y="210" as="sourcePoint" />
            <mxPoint x="600" y="242" as="targetPoint" />
            <Array as="points">
              <mxPoint x="560" y="240" />
            </Array>
          </mxGeometry>
        </mxCell>
        <mxCell id="208" value="" style="orthogonalLoop=1;jettySize=auto;html=1;elbow=vertical;rounded=0;startArrow=oval;startFill=1;" edge="1" parent="1">
          <mxGeometry width="80" relative="1" as="geometry">
            <mxPoint x="810" y="110" as="sourcePoint" />
            <mxPoint x="810" y="200" as="targetPoint" />
            <Array as="points" />
          </mxGeometry>
        </mxCell>
        <mxCell id="209" value="" style="orthogonalLoop=1;jettySize=auto;html=1;elbow=vertical;rounded=0;jumpStyle=arc;jumpSize=10;startArrow=oval;startFill=1;" edge="1" parent="1">
          <mxGeometry width="80" relative="1" as="geometry">
            <mxPoint x="790" y="80" as="sourcePoint" />
            <mxPoint x="790" y="200" as="targetPoint" />
            <Array as="points" />
          </mxGeometry>
        </mxCell>
        <mxCell id="210" value="" style="orthogonalLoop=1;jettySize=auto;html=1;elbow=vertical;rounded=0;startArrow=oval;startFill=1;" edge="1" parent="1">
          <mxGeometry width="80" relative="1" as="geometry">
            <mxPoint x="570" y="110" as="sourcePoint" />
            <mxPoint x="570" y="200" as="targetPoint" />
            <Array as="points" />
          </mxGeometry>
        </mxCell>
        <mxCell id="211" value="" style="orthogonalLoop=1;jettySize=auto;html=1;elbow=vertical;rounded=0;jumpStyle=arc;jumpSize=10;startArrow=oval;startFill=1;" edge="1" parent="1">
          <mxGeometry width="80" relative="1" as="geometry">
            <mxPoint x="550" y="80" as="sourcePoint" />
            <mxPoint x="550" y="200" as="targetPoint" />
            <Array as="points" />
          </mxGeometry>
        </mxCell>
        <mxCell id="212" value="AND" style="text;html=1;align=center;verticalAlign=middle;resizable=0;points=[];autosize=1;strokeColor=none;fillColor=none;" vertex="1" parent="1">
          <mxGeometry x="265" y="548" width="50" height="30" as="geometry" />
        </mxCell>
        <mxCell id="213" value="AND" style="text;html=1;align=center;verticalAlign=middle;resizable=0;points=[];autosize=1;strokeColor=none;fillColor=none;" vertex="1" parent="1">
          <mxGeometry x="440" y="548" width="50" height="30" as="geometry" />
        </mxCell>
        <mxCell id="107" value="n-k-3" style="edgeStyle=none;orthogonalLoop=1;jettySize=auto;html=1;endArrow=none;endFill=0;labelBackgroundColor=none;fontFamily=monospace;" parent="1" edge="1">
          <mxGeometry x="-1" y="17" width="80" relative="1" as="geometry">
            <mxPoint x="225" y="419" as="sourcePoint" />
            <mxPoint x="235" y="409" as="targetPoint" />
            <Array as="points" />
            <mxPoint x="-3" y="3" as="offset" />
          </mxGeometry>
        </mxCell>
      </root>
    </mxGraphModel>
  </diagram>
</mxfile>
